<svg width="16" height="16" viewBox="0 0 16 16" fill="none" xmlns="http://www.w3.org/2000/svg">
<g clip-path="url(#clip0_260_413)">
<path d="M13.6328 13.9024H11.2621V10.2264C11.2621 9.34977 11.2463 8.22132 10.0291 8.22132C8.79431 8.22132 8.60539 9.1764 8.60539 10.1625V13.9022H6.23468V6.34271H8.51056V7.37579H8.54242C8.77018 6.9902 9.0993 6.67299 9.49473 6.45796C9.89016 6.24292 10.3371 6.13811 10.7879 6.15468C13.1907 6.15468 13.6338 7.71958 13.6338 9.75542L13.6328 13.9024ZM3.55975 5.30939C3.28765 5.30943 3.02165 5.22959 2.79538 5.07995C2.56911 4.93031 2.39275 4.71759 2.28858 4.4687C2.18441 4.21981 2.15711 3.94593 2.21014 3.68168C2.26318 3.41743 2.39417 3.17468 2.58653 2.98414C2.7789 2.7936 3.02401 2.66382 3.29087 2.61121C3.55773 2.5586 3.83435 2.58553 4.08575 2.68859C4.33715 2.79165 4.55205 2.9662 4.70326 3.19019C4.85447 3.41417 4.9352 3.67753 4.93525 3.94694C4.93529 4.12583 4.89973 4.30297 4.83062 4.46825C4.76151 4.63353 4.66021 4.78372 4.53249 4.91023C4.40476 5.03675 4.2531 5.13711 4.0862 5.2056C3.9193 5.27409 3.74042 5.30935 3.55975 5.30939ZM4.7451 13.9024H2.37193V6.34271H4.7451V13.9024ZM14.8147 0.405132H1.18066C0.871207 0.401674 0.573012 0.520004 0.351627 0.73412C0.130241 0.948235 0.00377671 1.24062 0 1.54702V15.1027C0.00364745 15.4093 0.130038 15.7019 0.351416 15.9162C0.572793 16.1305 0.871053 16.2491 1.18066 16.2458H14.8147C15.1249 16.2497 15.424 16.1315 15.6462 15.9171C15.8685 15.7028 15.9957 15.4099 16 15.1027V1.54604C15.9956 1.23903 15.8683 0.946317 15.646 0.732207C15.4237 0.518097 15.1247 0.400105 14.8147 0.404154" fill="#A1A1AA"/>
</g>
<defs>
<clipPath id="clip0_260_413">
<rect width="16" height="16" fill="white"/>
</clipPath>
</defs>
</svg>
